<?xml version="1.0" encoding="utf-8"?>
<svg xmlns="http://www.w3.org/2000/svg" xmlns:xlink="http://www.w3.org/1999/xlink" width="600" height="400" viewBox="0 0 2400 1600">
<defs>
  <clipPath id="clip040">
    <rect x="0" y="0" width="2400" height="1600"/>
  </clipPath>
</defs>
<path clip-path="url(#clip040)" d="M0 1600 L2400 1600 L2400 8.88178e-14 L0 8.88178e-14  Z" fill="#ffffff" fill-rule="evenodd" fill-opacity="1"/>
<defs>
  <clipPath id="clip041">
    <rect x="480" y="0" width="1681" height="1600"/>
  </clipPath>
</defs>
<path clip-path="url(#clip040)" d="M211.325 1423.18 L2352.76 1423.18 L2352.76 123.472 L211.325 123.472  Z" fill="#ffffff" fill-rule="evenodd" fill-opacity="1"/>
<defs>
  <clipPath id="clip042">
    <rect x="211" y="123" width="2142" height="1301"/>
  </clipPath>
</defs>
<polyline clip-path="url(#clip042)" style="stroke:#000000; stroke-linecap:round; stroke-linejoin:round; stroke-width:2; stroke-opacity:0.1; fill:none" points="211.325,1423.18 211.325,123.472 "/>
<polyline clip-path="url(#clip042)" style="stroke:#000000; stroke-linecap:round; stroke-linejoin:round; stroke-width:2; stroke-opacity:0.1; fill:none" points="746.682,1423.18 746.682,123.472 "/>
<polyline clip-path="url(#clip042)" style="stroke:#000000; stroke-linecap:round; stroke-linejoin:round; stroke-width:2; stroke-opacity:0.1; fill:none" points="1282.04,1423.18 1282.04,123.472 "/>
<polyline clip-path="url(#clip042)" style="stroke:#000000; stroke-linecap:round; stroke-linejoin:round; stroke-width:2; stroke-opacity:0.1; fill:none" points="1817.4,1423.18 1817.4,123.472 "/>
<polyline clip-path="url(#clip042)" style="stroke:#000000; stroke-linecap:round; stroke-linejoin:round; stroke-width:2; stroke-opacity:0.1; fill:none" points="2352.76,1423.18 2352.76,123.472 "/>
<polyline clip-path="url(#clip042)" style="stroke:#000000; stroke-linecap:round; stroke-linejoin:round; stroke-width:2; stroke-opacity:0.1; fill:none" points="211.325,1222.92 2352.76,1222.92 "/>
<polyline clip-path="url(#clip042)" style="stroke:#000000; stroke-linecap:round; stroke-linejoin:round; stroke-width:2; stroke-opacity:0.1; fill:none" points="211.325,926.153 2352.76,926.153 "/>
<polyline clip-path="url(#clip042)" style="stroke:#000000; stroke-linecap:round; stroke-linejoin:round; stroke-width:2; stroke-opacity:0.1; fill:none" points="211.325,629.382 2352.76,629.382 "/>
<polyline clip-path="url(#clip042)" style="stroke:#000000; stroke-linecap:round; stroke-linejoin:round; stroke-width:2; stroke-opacity:0.1; fill:none" points="211.325,332.612 2352.76,332.612 "/>
<polyline clip-path="url(#clip040)" style="stroke:#000000; stroke-linecap:round; stroke-linejoin:round; stroke-width:4; stroke-opacity:1; fill:none" points="211.325,1423.18 2352.76,1423.18 "/>
<polyline clip-path="url(#clip040)" style="stroke:#000000; stroke-linecap:round; stroke-linejoin:round; stroke-width:4; stroke-opacity:1; fill:none" points="211.325,1423.18 211.325,1404.28 "/>
<polyline clip-path="url(#clip040)" style="stroke:#000000; stroke-linecap:round; stroke-linejoin:round; stroke-width:4; stroke-opacity:1; fill:none" points="746.682,1423.18 746.682,1404.28 "/>
<polyline clip-path="url(#clip040)" style="stroke:#000000; stroke-linecap:round; stroke-linejoin:round; stroke-width:4; stroke-opacity:1; fill:none" points="1282.04,1423.18 1282.04,1404.28 "/>
<polyline clip-path="url(#clip040)" style="stroke:#000000; stroke-linecap:round; stroke-linejoin:round; stroke-width:4; stroke-opacity:1; fill:none" points="1817.4,1423.18 1817.4,1404.28 "/>
<polyline clip-path="url(#clip040)" style="stroke:#000000; stroke-linecap:round; stroke-linejoin:round; stroke-width:4; stroke-opacity:1; fill:none" points="2352.76,1423.18 2352.76,1404.28 "/>
<path clip-path="url(#clip040)" d="M211.325 1454.1 Q207.714 1454.1 205.885 1457.66 Q204.079 1461.2 204.079 1468.33 Q204.079 1475.44 205.885 1479.01 Q207.714 1482.55 211.325 1482.55 Q214.959 1482.55 216.764 1479.01 Q218.593 1475.44 218.593 1468.33 Q218.593 1461.2 216.764 1457.66 Q214.959 1454.1 211.325 1454.1 M211.325 1450.39 Q217.135 1450.39 220.19 1455 Q223.269 1459.58 223.269 1468.33 Q223.269 1477.06 220.19 1481.67 Q217.135 1486.25 211.325 1486.25 Q205.514 1486.25 202.436 1481.67 Q199.38 1477.06 199.38 1468.33 Q199.38 1459.58 202.436 1455 Q205.514 1450.39 211.325 1450.39 Z" fill="#000000" fill-rule="nonzero" fill-opacity="1" /><path clip-path="url(#clip040)" d="M736.96 1451.02 L755.317 1451.02 L755.317 1454.96 L741.243 1454.96 L741.243 1463.43 Q742.261 1463.08 743.28 1462.92 Q744.298 1462.73 745.317 1462.73 Q751.104 1462.73 754.483 1465.9 Q757.863 1469.08 757.863 1474.49 Q757.863 1480.07 754.391 1483.17 Q750.919 1486.25 744.599 1486.25 Q742.423 1486.25 740.155 1485.88 Q737.909 1485.51 735.502 1484.77 L735.502 1480.07 Q737.585 1481.2 739.807 1481.76 Q742.03 1482.32 744.507 1482.32 Q748.511 1482.32 750.849 1480.21 Q753.187 1478.1 753.187 1474.49 Q753.187 1470.88 750.849 1468.77 Q748.511 1466.67 744.507 1466.67 Q742.632 1466.67 740.757 1467.08 Q738.905 1467.5 736.96 1468.38 L736.96 1451.02 Z" fill="#000000" fill-rule="nonzero" fill-opacity="1" /><path clip-path="url(#clip040)" d="M1256.73 1481.64 L1264.37 1481.64 L1264.37 1455.28 L1256.06 1456.95 L1256.06 1452.69 L1264.32 1451.02 L1269 1451.02 L1269 1481.64 L1276.64 1481.64 L1276.64 1485.58 L1256.73 1485.58 L1256.73 1481.64 Z" fill="#000000" fill-rule="nonzero" fill-opacity="1" /><path clip-path="url(#clip040)" d="M1296.08 1454.1 Q1292.47 1454.1 1290.64 1457.66 Q1288.83 1461.2 1288.83 1468.33 Q1288.83 1475.44 1290.64 1479.01 Q1292.47 1482.55 1296.08 1482.55 Q1299.71 1482.55 1301.52 1479.01 Q1303.35 1475.44 1303.35 1468.33 Q1303.35 1461.2 1301.52 1457.66 Q1299.71 1454.1 1296.08 1454.1 M1296.08 1450.39 Q1301.89 1450.39 1304.95 1455 Q1308.02 1459.58 1308.02 1468.33 Q1308.02 1477.06 1304.95 1481.67 Q1301.89 1486.25 1296.08 1486.25 Q1290.27 1486.25 1287.19 1481.67 Q1284.14 1477.06 1284.14 1468.33 Q1284.14 1459.58 1287.19 1455 Q1290.27 1450.39 1296.08 1450.39 Z" fill="#000000" fill-rule="nonzero" fill-opacity="1" /><path clip-path="url(#clip040)" d="M1792.58 1481.64 L1800.22 1481.64 L1800.22 1455.28 L1791.91 1456.95 L1791.91 1452.69 L1800.18 1451.02 L1804.85 1451.02 L1804.85 1481.64 L1812.49 1481.64 L1812.49 1485.58 L1792.58 1485.58 L1792.58 1481.64 Z" fill="#000000" fill-rule="nonzero" fill-opacity="1" /><path clip-path="url(#clip040)" d="M1821.98 1451.02 L1840.34 1451.02 L1840.34 1454.96 L1826.26 1454.96 L1826.26 1463.43 Q1827.28 1463.08 1828.3 1462.92 Q1829.32 1462.73 1830.34 1462.73 Q1836.12 1462.73 1839.5 1465.9 Q1842.88 1469.08 1842.88 1474.49 Q1842.88 1480.07 1839.41 1483.17 Q1835.94 1486.25 1829.62 1486.25 Q1827.44 1486.25 1825.18 1485.88 Q1822.93 1485.51 1820.52 1484.77 L1820.52 1480.07 Q1822.61 1481.2 1824.83 1481.76 Q1827.05 1482.32 1829.53 1482.32 Q1833.53 1482.32 1835.87 1480.21 Q1838.21 1478.1 1838.21 1474.49 Q1838.21 1470.88 1835.87 1468.77 Q1833.53 1466.67 1829.53 1466.67 Q1827.65 1466.67 1825.78 1467.08 Q1823.93 1467.5 1821.98 1468.38 L1821.98 1451.02 Z" fill="#000000" fill-rule="nonzero" fill-opacity="1" /><path clip-path="url(#clip040)" d="M2331.53 1481.64 L2347.85 1481.64 L2347.85 1485.58 L2325.9 1485.58 L2325.9 1481.64 Q2328.57 1478.89 2333.15 1474.26 Q2337.76 1469.61 2338.94 1468.27 Q2341.18 1465.74 2342.06 1464.01 Q2342.96 1462.25 2342.96 1460.56 Q2342.96 1457.8 2341.02 1456.07 Q2339.1 1454.33 2336 1454.33 Q2333.8 1454.33 2331.34 1455.09 Q2328.91 1455.86 2326.14 1457.41 L2326.14 1452.69 Q2328.96 1451.55 2331.41 1450.97 Q2333.87 1450.39 2335.9 1450.39 Q2341.27 1450.39 2344.47 1453.08 Q2347.66 1455.77 2347.66 1460.26 Q2347.66 1462.39 2346.85 1464.31 Q2346.07 1466.2 2343.96 1468.8 Q2343.38 1469.47 2340.28 1472.69 Q2337.18 1475.88 2331.53 1481.64 Z" fill="#000000" fill-rule="nonzero" fill-opacity="1" /><path clip-path="url(#clip040)" d="M2367.66 1454.1 Q2364.05 1454.1 2362.22 1457.66 Q2360.42 1461.2 2360.42 1468.33 Q2360.42 1475.44 2362.22 1479.01 Q2364.05 1482.55 2367.66 1482.55 Q2371.3 1482.55 2373.1 1479.01 Q2374.93 1475.44 2374.93 1468.33 Q2374.93 1461.2 2373.1 1457.66 Q2371.3 1454.1 2367.66 1454.1 M2367.66 1450.39 Q2373.47 1450.39 2376.53 1455 Q2379.61 1459.58 2379.61 1468.33 Q2379.61 1477.06 2376.53 1481.67 Q2373.47 1486.25 2367.66 1486.25 Q2361.85 1486.25 2358.77 1481.67 Q2355.72 1477.06 2355.72 1468.33 Q2355.72 1459.58 2358.77 1455 Q2361.85 1450.39 2367.66 1450.39 Z" fill="#000000" fill-rule="nonzero" fill-opacity="1" /><path clip-path="url(#clip040)" d="M1281.1 1522.27 L1281.1 1532.4 L1293.16 1532.4 L1293.16 1536.95 L1281.1 1536.95 L1281.1 1556.3 Q1281.1 1560.66 1282.28 1561.9 Q1283.49 1563.14 1287.15 1563.14 L1293.16 1563.14 L1293.16 1568.04 L1287.15 1568.04 Q1280.37 1568.04 1277.79 1565.53 Q1275.21 1562.98 1275.21 1556.3 L1275.21 1536.95 L1270.92 1536.95 L1270.92 1532.4 L1275.21 1532.4 L1275.21 1522.27 L1281.1 1522.27 Z" fill="#000000" fill-rule="nonzero" fill-opacity="1" /><polyline clip-path="url(#clip040)" style="stroke:#000000; stroke-linecap:round; stroke-linejoin:round; stroke-width:4; stroke-opacity:1; fill:none" points="211.325,1423.18 211.325,123.472 "/>
<polyline clip-path="url(#clip040)" style="stroke:#000000; stroke-linecap:round; stroke-linejoin:round; stroke-width:4; stroke-opacity:1; fill:none" points="211.325,1222.92 230.222,1222.92 "/>
<polyline clip-path="url(#clip040)" style="stroke:#000000; stroke-linecap:round; stroke-linejoin:round; stroke-width:4; stroke-opacity:1; fill:none" points="211.325,926.153 230.222,926.153 "/>
<polyline clip-path="url(#clip040)" style="stroke:#000000; stroke-linecap:round; stroke-linejoin:round; stroke-width:4; stroke-opacity:1; fill:none" points="211.325,629.382 230.222,629.382 "/>
<polyline clip-path="url(#clip040)" style="stroke:#000000; stroke-linecap:round; stroke-linejoin:round; stroke-width:4; stroke-opacity:1; fill:none" points="211.325,332.612 230.222,332.612 "/>
<path clip-path="url(#clip040)" d="M114.26 1223.37 L143.936 1223.37 L143.936 1227.31 L114.26 1227.31 L114.26 1223.37 Z" fill="#000000" fill-rule="nonzero" fill-opacity="1" /><path clip-path="url(#clip040)" d="M168.195 1221.57 Q171.552 1222.29 173.427 1224.56 Q175.325 1226.82 175.325 1230.16 Q175.325 1235.27 171.806 1238.07 Q168.288 1240.87 161.806 1240.87 Q159.63 1240.87 157.315 1240.43 Q155.024 1240.02 152.57 1239.16 L152.57 1234.65 Q154.515 1235.78 156.829 1236.36 Q159.144 1236.94 161.667 1236.94 Q166.065 1236.94 168.357 1235.2 Q170.672 1233.47 170.672 1230.16 Q170.672 1227.1 168.519 1225.39 Q166.39 1223.65 162.57 1223.65 L158.542 1223.65 L158.542 1219.81 L162.755 1219.81 Q166.204 1219.81 168.033 1218.44 Q169.862 1217.06 169.862 1214.46 Q169.862 1211.8 167.964 1210.39 Q166.089 1208.95 162.57 1208.95 Q160.649 1208.95 158.45 1209.37 Q156.251 1209.79 153.612 1210.67 L153.612 1206.5 Q156.274 1205.76 158.589 1205.39 Q160.927 1205.02 162.987 1205.02 Q168.311 1205.02 171.413 1207.45 Q174.514 1209.86 174.514 1213.98 Q174.514 1216.85 172.871 1218.84 Q171.227 1220.81 168.195 1221.57 Z" fill="#000000" fill-rule="nonzero" fill-opacity="1" /><path clip-path="url(#clip040)" d="M163.38 911.951 Q159.769 911.951 157.94 915.516 Q156.135 919.058 156.135 926.187 Q156.135 933.294 157.94 936.859 Q159.769 940.4 163.38 940.4 Q167.015 940.4 168.82 936.859 Q170.649 933.294 170.649 926.187 Q170.649 919.058 168.82 915.516 Q167.015 911.951 163.38 911.951 M163.38 908.248 Q169.19 908.248 172.246 912.854 Q175.325 917.437 175.325 926.187 Q175.325 934.914 172.246 939.521 Q169.19 944.104 163.38 944.104 Q157.57 944.104 154.491 939.521 Q151.436 934.914 151.436 926.187 Q151.436 917.437 154.491 912.854 Q157.57 908.248 163.38 908.248 Z" fill="#000000" fill-rule="nonzero" fill-opacity="1" /><path clip-path="url(#clip040)" d="M168.195 628.028 Q171.552 628.746 173.427 631.014 Q175.325 633.283 175.325 636.616 Q175.325 641.732 171.806 644.533 Q168.288 647.333 161.806 647.333 Q159.63 647.333 157.315 646.894 Q155.024 646.477 152.57 645.621 L152.57 641.107 Q154.515 642.241 156.829 642.82 Q159.144 643.398 161.667 643.398 Q166.065 643.398 168.357 641.662 Q170.672 639.926 170.672 636.616 Q170.672 633.56 168.519 631.847 Q166.39 630.111 162.57 630.111 L158.542 630.111 L158.542 626.269 L162.755 626.269 Q166.204 626.269 168.033 624.903 Q169.862 623.514 169.862 620.922 Q169.862 618.26 167.964 616.848 Q166.089 615.412 162.57 615.412 Q160.649 615.412 158.45 615.829 Q156.251 616.246 153.612 617.125 L153.612 612.959 Q156.274 612.218 158.589 611.848 Q160.927 611.477 162.987 611.477 Q168.311 611.477 171.413 613.908 Q174.514 616.315 174.514 620.435 Q174.514 623.306 172.871 625.297 Q171.227 627.264 168.195 628.028 Z" fill="#000000" fill-rule="nonzero" fill-opacity="1" /><path clip-path="url(#clip040)" d="M163.797 330.748 Q160.649 330.748 158.797 332.901 Q156.968 335.054 156.968 338.804 Q156.968 342.531 158.797 344.706 Q160.649 346.859 163.797 346.859 Q166.945 346.859 168.774 344.706 Q170.626 342.531 170.626 338.804 Q170.626 335.054 168.774 332.901 Q166.945 330.748 163.797 330.748 M173.079 316.096 L173.079 320.355 Q171.32 319.521 169.514 319.082 Q167.732 318.642 165.973 318.642 Q161.343 318.642 158.89 321.767 Q156.459 324.892 156.112 331.211 Q157.478 329.197 159.538 328.132 Q161.598 327.045 164.075 327.045 Q169.283 327.045 172.292 330.216 Q175.325 333.364 175.325 338.804 Q175.325 344.128 172.177 347.345 Q169.028 350.563 163.797 350.563 Q157.802 350.563 154.63 345.98 Q151.459 341.373 151.459 332.646 Q151.459 324.452 155.348 319.591 Q159.237 314.707 165.788 314.707 Q167.547 314.707 169.329 315.054 Q171.135 315.401 173.079 316.096 Z" fill="#000000" fill-rule="nonzero" fill-opacity="1" /><path clip-path="url(#clip040)" d="M49.9359 826.623 L28.3562 826.623 L28.3562 820.766 L49.7131 820.766 Q54.7739 820.766 57.3202 818.793 Q59.8346 816.82 59.8346 812.873 Q59.8346 808.13 56.8109 805.393 Q53.7872 802.624 48.5673 802.624 L28.3562 802.624 L28.3562 796.768 L64.0042 796.768 L64.0042 802.624 L58.5296 802.624 Q61.7762 804.757 63.3676 807.589 Q64.9272 810.39 64.9272 814.114 Q64.9272 820.257 61.1078 823.44 Q57.2883 826.623 49.9359 826.623 M27.4968 811.886 L27.4968 811.886 Z" fill="#000000" fill-rule="nonzero" fill-opacity="1" /><path clip-path="url(#clip040)" d="M14.5426 770.636 Q21.8632 774.901 29.0246 776.97 Q36.186 779.039 43.5384 779.039 Q50.8908 779.039 58.1159 776.97 Q65.3091 774.87 72.5979 770.636 L72.5979 775.729 Q65.1182 780.503 57.8931 782.89 Q50.668 785.246 43.5384 785.246 Q36.4406 785.246 29.2474 782.89 Q22.0542 780.535 14.5426 775.729 L14.5426 770.636 Z" fill="#000000" fill-rule="nonzero" fill-opacity="1" /><path clip-path="url(#clip040)" d="M18.2347 753.481 L28.3562 753.481 L28.3562 741.418 L32.9077 741.418 L32.9077 753.481 L52.2594 753.481 Q56.6199 753.481 57.8613 752.303 Q59.1026 751.094 59.1026 747.433 L59.1026 741.418 L64.0042 741.418 L64.0042 747.433 Q64.0042 754.213 61.4897 756.791 Q58.9434 759.369 52.2594 759.369 L32.9077 759.369 L32.9077 763.666 L28.3562 763.666 L28.3562 759.369 L18.2347 759.369 L18.2347 753.481 Z" fill="#000000" fill-rule="nonzero" fill-opacity="1" /><path clip-path="url(#clip040)" d="M14.5426 734.638 L14.5426 729.546 Q22.0542 724.772 29.2474 722.416 Q36.4406 720.029 43.5384 720.029 Q50.668 720.029 57.8931 722.416 Q65.1182 724.772 72.5979 729.546 L72.5979 734.638 Q65.3091 730.405 58.1159 728.336 Q50.8908 726.236 43.5384 726.236 Q36.186 726.236 29.0246 728.336 Q21.8632 730.405 14.5426 734.638 Z" fill="#000000" fill-rule="nonzero" fill-opacity="1" /><path clip-path="url(#clip040)" d="M825.119 43.6931 L825.119 65.8515 L838.243 65.8515 Q844.846 65.8515 848.006 63.1374 Q851.206 60.3828 851.206 54.752 Q851.206 49.0808 848.006 46.4072 Q844.846 43.6931 838.243 43.6931 L825.119 43.6931 M825.119 18.8205 L825.119 37.0496 L837.231 37.0496 Q843.226 37.0496 846.143 34.8216 Q849.1 32.5531 849.1 27.935 Q849.1 23.3575 846.143 21.089 Q843.226 18.8205 837.231 18.8205 L825.119 18.8205 M816.936 12.096 L837.838 12.096 Q847.196 12.096 852.26 15.9849 Q857.323 19.8737 857.323 27.0438 Q857.323 32.5936 854.731 35.8748 Q852.138 39.156 847.115 39.9662 Q853.151 41.2625 856.473 45.3944 Q859.835 49.4858 859.835 55.6432 Q859.835 63.745 854.326 68.1605 Q848.816 72.576 838.649 72.576 L816.936 72.576 L816.936 12.096 Z" fill="#000000" fill-rule="nonzero" fill-opacity="1" /><path clip-path="url(#clip040)" d="M894.146 49.7694 Q885.112 49.7694 881.629 51.8354 Q878.145 53.9013 878.145 58.8839 Q878.145 62.8538 880.737 65.2034 Q883.371 67.5124 887.867 67.5124 Q894.065 67.5124 897.792 63.1374 Q901.559 58.7219 901.559 51.4303 L901.559 49.7694 L894.146 49.7694 M909.013 46.6907 L909.013 72.576 L901.559 72.576 L901.559 65.6895 Q899.007 69.8214 895.199 71.8063 Q891.391 73.7508 885.882 73.7508 Q878.915 73.7508 874.783 69.8619 Q870.691 65.9325 870.691 59.3701 Q870.691 51.7138 875.795 47.825 Q880.94 43.9361 891.108 43.9361 L901.559 43.9361 L901.559 43.2069 Q901.559 38.0623 898.156 35.2672 Q894.794 32.4315 888.677 32.4315 Q884.788 32.4315 881.102 33.3632 Q877.416 34.295 874.013 36.1584 L874.013 29.2718 Q878.104 27.692 881.953 26.9223 Q885.801 26.1121 889.447 26.1121 Q899.291 26.1121 904.152 31.2163 Q909.013 36.3204 909.013 46.6907 Z" fill="#000000" fill-rule="nonzero" fill-opacity="1" /><path clip-path="url(#clip040)" d="M954.221 49.3643 Q954.221 41.2625 950.859 36.8065 Q947.537 32.3505 941.501 32.3505 Q935.506 32.3505 932.143 36.8065 Q928.822 41.2625 928.822 49.3643 Q928.822 57.4256 932.143 61.8816 Q935.506 66.3376 941.501 66.3376 Q947.537 66.3376 950.859 61.8816 Q954.221 57.4256 954.221 49.3643 M961.675 66.9452 Q961.675 78.5308 956.53 84.1616 Q951.385 89.8329 940.772 89.8329 Q936.842 89.8329 933.359 89.2252 Q929.875 88.6581 926.594 87.4428 L926.594 80.1917 Q929.875 81.9741 933.075 82.8248 Q936.275 83.6755 939.597 83.6755 Q946.929 83.6755 950.575 79.8271 Q954.221 76.0193 954.221 68.282 L954.221 64.5957 Q951.912 68.6061 948.307 70.5911 Q944.701 72.576 939.678 72.576 Q931.333 72.576 926.229 66.2161 Q921.125 59.8562 921.125 49.3643 Q921.125 38.832 926.229 32.472 Q931.333 26.1121 939.678 26.1121 Q944.701 26.1121 948.307 28.0971 Q951.912 30.082 954.221 34.0924 L954.221 27.2059 L961.675 27.2059 L961.675 66.9452 Z" fill="#000000" fill-rule="nonzero" fill-opacity="1" /><path clip-path="url(#clip040)" d="M977.027 9.54393 L984.481 9.54393 L984.481 72.576 L977.027 72.576 L977.027 9.54393 Z" fill="#000000" fill-rule="nonzero" fill-opacity="1" /><path clip-path="url(#clip040)" d="M1038.88 48.0275 L1038.88 51.6733 L1004.61 51.6733 Q1005.1 59.3701 1009.23 63.421 Q1013.4 67.4314 1020.82 67.4314 Q1025.11 67.4314 1029.12 66.3781 Q1033.17 65.3249 1037.14 63.2184 L1037.14 70.267 Q1033.13 71.9684 1028.92 72.8596 Q1024.71 73.7508 1020.37 73.7508 Q1009.52 73.7508 1003.16 67.4314 Q996.836 61.1119 996.836 50.3365 Q996.836 39.1965 1002.83 32.6746 Q1008.87 26.1121 1019.08 26.1121 Q1028.23 26.1121 1033.54 32.0264 Q1038.88 37.9003 1038.88 48.0275 M1031.43 45.84 Q1031.35 39.7232 1027.99 36.0774 Q1024.67 32.4315 1019.16 32.4315 Q1012.92 32.4315 1009.15 35.9558 Q1005.42 39.4801 1004.86 45.8805 L1031.43 45.84 Z" fill="#000000" fill-rule="nonzero" fill-opacity="1" /><path clip-path="url(#clip040)" d="M1070 76.7889 Q1066.84 84.8907 1063.84 87.3618 Q1060.84 89.8329 1055.82 89.8329 L1049.86 89.8329 L1049.86 83.5945 L1054.24 83.5945 Q1057.32 83.5945 1059.02 82.1361 Q1060.72 80.6778 1062.79 75.2496 L1064.12 71.8468 L1045.77 27.2059 L1053.67 27.2059 L1067.85 62.6918 L1082.03 27.2059 L1089.93 27.2059 L1070 76.7889 Z" fill="#000000" fill-rule="nonzero" fill-opacity="1" /><path clip-path="url(#clip040)" d="M1118.53 12.096 L1169.69 12.096 L1169.69 18.9825 L1148.22 18.9825 L1148.22 72.576 L1140 72.576 L1140 18.9825 L1118.53 18.9825 L1118.53 12.096 Z" fill="#000000" fill-rule="nonzero" fill-opacity="1" /><path clip-path="url(#clip040)" d="M1180.75 32.4315 Q1174.75 32.4315 1171.27 37.1306 Q1167.78 41.7891 1167.78 49.9314 Q1167.78 58.0738 1171.23 62.7728 Q1174.71 67.4314 1180.75 67.4314 Q1186.7 67.4314 1190.19 62.7323 Q1193.67 58.0333 1193.67 49.9314 Q1193.67 41.8701 1190.19 37.1711 Q1186.7 32.4315 1180.75 32.4315 M1180.75 26.1121 Q1190.47 26.1121 1196.02 32.4315 Q1201.57 38.7509 1201.57 49.9314 Q1201.57 61.0714 1196.02 67.4314 Q1190.47 73.7508 1180.75 73.7508 Q1170.98 73.7508 1165.43 67.4314 Q1159.93 61.0714 1159.93 49.9314 Q1159.93 38.7509 1165.43 32.4315 Q1170.98 26.1121 1180.75 26.1121 Z" fill="#000000" fill-rule="nonzero" fill-opacity="1" /><path clip-path="url(#clip040)" d="M1240.21 34.1734 Q1238.96 33.4443 1237.46 33.1202 Q1236 32.7556 1234.22 32.7556 Q1227.9 32.7556 1224.5 36.8875 Q1221.13 40.9789 1221.13 48.6757 L1221.13 72.576 L1213.64 72.576 L1213.64 27.2059 L1221.13 27.2059 L1221.13 34.2544 Q1223.48 30.1225 1227.25 28.1376 Q1231.02 26.1121 1236.41 26.1121 Q1237.18 26.1121 1238.11 26.2337 Q1239.04 26.3147 1240.17 26.5172 L1240.21 34.1734 Z" fill="#000000" fill-rule="nonzero" fill-opacity="1" /><path clip-path="url(#clip040)" d="M1242.69 27.2059 L1250.59 27.2059 L1264.76 65.2844 L1278.94 27.2059 L1286.84 27.2059 L1269.83 72.576 L1259.7 72.576 L1242.69 27.2059 Z" fill="#000000" fill-rule="nonzero" fill-opacity="1" /><path clip-path="url(#clip040)" d="M1297.13 27.2059 L1304.58 27.2059 L1304.58 72.576 L1297.13 72.576 L1297.13 27.2059 M1297.13 9.54393 L1304.58 9.54393 L1304.58 18.9825 L1297.13 18.9825 L1297.13 9.54393 Z" fill="#000000" fill-rule="nonzero" fill-opacity="1" /><path clip-path="url(#clip040)" d="M1319.9 9.54393 L1327.39 9.54393 L1327.39 46.7717 L1349.63 27.2059 L1359.15 27.2059 L1335.09 48.4326 L1360.16 72.576 L1350.44 72.576 L1327.39 50.4176 L1327.39 72.576 L1319.9 72.576 L1319.9 9.54393 Z" fill="#000000" fill-rule="nonzero" fill-opacity="1" /><path clip-path="url(#clip040)" d="M1394.92 12.096 L1433.16 12.096 L1433.16 18.9825 L1403.1 18.9825 L1403.1 36.8875 L1431.9 36.8875 L1431.9 43.7741 L1403.1 43.7741 L1403.1 65.6895 L1433.89 65.6895 L1433.89 72.576 L1394.92 72.576 L1394.92 12.096 Z" fill="#000000" fill-rule="nonzero" fill-opacity="1" /><path clip-path="url(#clip040)" d="M1451.47 49.9314 Q1451.47 58.1548 1454.83 62.8538 Q1458.23 67.5124 1464.15 67.5124 Q1470.06 67.5124 1473.47 62.8538 Q1476.87 58.1548 1476.87 49.9314 Q1476.87 41.7081 1473.47 37.0496 Q1470.06 32.3505 1464.15 32.3505 Q1458.23 32.3505 1454.83 37.0496 Q1451.47 41.7081 1451.47 49.9314 M1476.87 65.7705 Q1474.52 69.8214 1470.91 71.8063 Q1467.35 73.7508 1462.33 73.7508 Q1454.1 73.7508 1448.92 67.1883 Q1443.77 60.6258 1443.77 49.9314 Q1443.77 39.2371 1448.92 32.6746 Q1454.1 26.1121 1462.33 26.1121 Q1467.35 26.1121 1470.91 28.0971 Q1474.52 30.0415 1476.87 34.0924 L1476.87 27.2059 L1484.32 27.2059 L1484.32 89.8329 L1476.87 89.8329 L1476.87 65.7705 Z" fill="#000000" fill-rule="nonzero" fill-opacity="1" /><path clip-path="url(#clip040)" d="M1498.91 54.671 L1498.91 27.2059 L1506.36 27.2059 L1506.36 54.3874 Q1506.36 60.8284 1508.87 64.0691 Q1511.38 67.2693 1516.41 67.2693 Q1522.44 67.2693 1525.92 63.421 Q1529.45 59.5726 1529.45 52.9291 L1529.45 27.2059 L1536.9 27.2059 L1536.9 72.576 L1529.45 72.576 L1529.45 65.6084 Q1526.74 69.7404 1523.13 71.7658 Q1519.57 73.7508 1514.83 73.7508 Q1507.01 73.7508 1502.96 68.8897 Q1498.91 64.0286 1498.91 54.671 M1517.66 26.1121 L1517.66 26.1121 Z" fill="#000000" fill-rule="nonzero" fill-opacity="1" /><path clip-path="url(#clip040)" d="M1572.87 49.7694 Q1563.84 49.7694 1560.36 51.8354 Q1556.87 53.9013 1556.87 58.8839 Q1556.87 62.8538 1559.47 65.2034 Q1562.1 67.5124 1566.6 67.5124 Q1572.79 67.5124 1576.52 63.1374 Q1580.29 58.7219 1580.29 51.4303 L1580.29 49.7694 L1572.87 49.7694 M1587.74 46.6907 L1587.74 72.576 L1580.29 72.576 L1580.29 65.6895 Q1577.74 69.8214 1573.93 71.8063 Q1570.12 73.7508 1564.61 73.7508 Q1557.64 73.7508 1553.51 69.8619 Q1549.42 65.9325 1549.42 59.3701 Q1549.42 51.7138 1554.52 47.825 Q1559.67 43.9361 1569.84 43.9361 L1580.29 43.9361 L1580.29 43.2069 Q1580.29 38.0623 1576.89 35.2672 Q1573.52 32.4315 1567.41 32.4315 Q1563.52 32.4315 1559.83 33.3632 Q1556.14 34.295 1552.74 36.1584 L1552.74 29.2718 Q1556.83 27.692 1560.68 26.9223 Q1564.53 26.1121 1568.18 26.1121 Q1578.02 26.1121 1582.88 31.2163 Q1587.74 36.3204 1587.74 46.6907 Z" fill="#000000" fill-rule="nonzero" fill-opacity="1" /><path clip-path="url(#clip040)" d="M1610.47 14.324 L1610.47 27.2059 L1625.82 27.2059 L1625.82 32.9987 L1610.47 32.9987 L1610.47 57.6282 Q1610.47 63.1779 1611.97 64.7578 Q1613.51 66.3376 1618.16 66.3376 L1625.82 66.3376 L1625.82 72.576 L1618.16 72.576 Q1609.54 72.576 1606.25 69.3758 Q1602.97 66.1351 1602.97 57.6282 L1602.97 32.9987 L1597.5 32.9987 L1597.5 27.2059 L1602.97 27.2059 L1602.97 14.324 L1610.47 14.324 Z" fill="#000000" fill-rule="nonzero" fill-opacity="1" /><path clip-path="url(#clip040)" d="M1635.62 27.2059 L1643.08 27.2059 L1643.08 72.576 L1635.62 72.576 L1635.62 27.2059 M1635.62 9.54393 L1643.08 9.54393 L1643.08 18.9825 L1635.62 18.9825 L1635.62 9.54393 Z" fill="#000000" fill-rule="nonzero" fill-opacity="1" /><path clip-path="url(#clip040)" d="M1676.25 32.4315 Q1670.26 32.4315 1666.77 37.1306 Q1663.29 41.7891 1663.29 49.9314 Q1663.29 58.0738 1666.73 62.7728 Q1670.22 67.4314 1676.25 67.4314 Q1682.21 67.4314 1685.69 62.7323 Q1689.18 58.0333 1689.18 49.9314 Q1689.18 41.8701 1685.69 37.1711 Q1682.21 32.4315 1676.25 32.4315 M1676.25 26.1121 Q1685.98 26.1121 1691.53 32.4315 Q1697.08 38.7509 1697.08 49.9314 Q1697.08 61.0714 1691.53 67.4314 Q1685.98 73.7508 1676.25 73.7508 Q1666.49 73.7508 1660.94 67.4314 Q1655.43 61.0714 1655.43 49.9314 Q1655.43 38.7509 1660.94 32.4315 Q1666.49 26.1121 1676.25 26.1121 Z" fill="#000000" fill-rule="nonzero" fill-opacity="1" /><path clip-path="url(#clip040)" d="M1747.14 45.1919 L1747.14 72.576 L1739.69 72.576 L1739.69 45.4349 Q1739.69 38.994 1737.18 35.7938 Q1734.67 32.5936 1729.64 32.5936 Q1723.61 32.5936 1720.13 36.4419 Q1716.64 40.2903 1716.64 46.9338 L1716.64 72.576 L1709.15 72.576 L1709.15 27.2059 L1716.64 27.2059 L1716.64 34.2544 Q1719.32 30.163 1722.92 28.1376 Q1726.57 26.1121 1731.31 26.1121 Q1739.12 26.1121 1743.13 30.9732 Q1747.14 35.7938 1747.14 45.1919 Z" fill="#000000" fill-rule="nonzero" fill-opacity="1" /><polyline clip-path="url(#clip042)" style="stroke:#009af9; stroke-linecap:round; stroke-linejoin:round; stroke-width:12; stroke-opacity:1; fill:none" points="211.325,926.153 212.395,926.115 213.466,926.001 214.537,925.815 215.608,925.557 216.678,925.228 217.749,924.828 218.82,924.36 219.89,923.823 220.961,923.218 222.032,922.546 223.103,921.807 224.173,921.002 225.244,920.132 226.315,919.197 227.385,918.197 228.456,917.133 229.527,916.006 230.598,914.815 231.668,913.562 232.739,912.246 233.81,910.868 234.88,909.429 235.951,907.928 237.022,906.367 238.093,904.746 239.163,903.064 240.234,901.323 241.305,899.522 242.375,897.662 243.446,895.744 244.517,893.768 245.588,891.733 246.658,889.641 247.729,887.492 248.8,885.286 249.87,883.023 250.941,880.703 252.012,878.328 253.083,875.897 254.153,873.411 255.224,870.87 256.295,868.274 257.365,865.623 258.436,862.919 259.507,860.16 260.578,857.348 261.648,854.483 262.719,851.565 263.79,848.594 264.86,845.571 265.931,842.496 267.002,839.369 268.073,836.191 269.143,832.961 270.214,829.681 271.285,826.35 272.355,822.969 273.426,819.538 274.497,816.057 275.568,812.527 276.638,808.947 277.709,805.319 278.78,801.643 279.85,797.918 280.921,794.145 281.992,790.324 283.063,786.456 284.133,782.541 285.204,778.58 286.275,774.571 287.345,770.517 288.416,766.416 289.487,762.27 290.558,758.079 291.628,753.842 292.699,749.561 293.77,745.235 294.84,740.865 295.911,736.451 296.982,731.993 298.053,727.492 299.123,722.948 300.194,718.361 301.265,713.732 302.335,709.06 303.406,704.346 304.477,699.591 305.548,694.794 306.618,689.957 307.689,685.078 308.76,680.159 309.83,675.2 310.901,670.201 311.972,665.162 313.043,660.084 314.113,654.967 315.184,649.811 316.255,644.616 317.325,639.383 318.396,634.113 319.467,628.818 320.538,623.549 321.608,618.318 322.679,613.123 323.75,607.962 324.821,602.836 325.891,597.743 326.962,592.684 328.033,587.657 329.103,582.663 330.174,577.701 331.245,572.771 332.316,567.872 333.386,563.005 334.457,558.169 335.528,553.365 336.598,548.591 337.669,543.847 338.74,539.134 339.811,534.452 340.881,529.8 341.952,525.178 343.023,520.586 344.093,516.024 345.164,511.492 346.235,506.99 347.306,502.517 348.376,498.075 349.447,493.662 350.518,489.278 351.588,484.924 352.659,480.599 353.73,476.304 354.801,472.039 355.871,467.802 356.942,463.595 358.013,459.417 359.083,455.269 360.154,451.15 361.225,447.06 362.296,442.999 363.366,438.967 364.437,434.965 365.508,430.991 366.578,427.047 367.649,423.132 368.72,419.246 369.791,415.389 370.861,411.561 371.932,407.763 373.003,403.993 374.073,400.253 375.144,396.541 376.215,392.859 377.286,389.206 378.356,385.581 379.427,381.986 380.498,378.42 381.568,374.883 382.639,371.375 383.71,367.897 384.781,364.447 385.851,361.026 386.922,357.635 387.993,354.272 389.063,350.939 390.134,347.635 391.205,344.36 392.276,341.114 393.346,337.897 394.417,334.709 395.488,331.55 396.558,328.421 397.629,325.32 398.7,322.249 399.771,319.207 400.841,316.194 401.912,313.21 402.983,310.255 404.053,307.33 405.124,304.433 406.195,301.566 407.266,298.728 408.336,295.919 409.407,293.139 410.478,290.388 411.548,287.667 412.619,284.974 413.69,282.311 414.761,279.677 415.831,277.072 416.902,274.496 417.973,271.949 419.043,269.432 420.114,266.944 421.185,264.484 422.256,262.054 423.326,259.653 424.397,257.282 425.468,254.939 426.538,252.625 427.609,250.341 428.68,248.086 429.751,245.86 430.821,243.662 431.892,241.494 432.963,239.355 434.033,237.245 435.104,235.165 436.175,233.113 437.246,231.09 438.316,229.096 439.387,227.132 440.458,225.196 441.529,223.289 442.599,221.411 443.67,219.563 444.741,217.743 445.811,215.952 446.882,214.19 447.953,212.457 449.024,210.752 450.094,209.077 451.165,207.43 452.236,205.812 453.306,204.224 454.377,202.663 455.448,201.132 456.519,199.629 457.589,198.155 458.66,196.71 459.731,195.293 460.801,193.905 461.872,192.546 462.943,191.215 464.014,189.913 465.084,188.639 466.155,187.394 467.226,186.177 468.296,184.988 469.367,183.828 470.438,182.697 471.509,181.594 472.579,180.519 473.65,179.472 474.721,178.454 475.791,177.464 476.862,176.502 477.933,175.568 479.004,174.662 480.074,173.784 481.145,172.935 482.216,172.113 483.286,171.319 484.357,170.553 485.428,169.816 486.499,169.105 487.569,168.423 488.64,167.768 489.711,167.142 490.781,166.542 491.852,165.971 492.923,165.427 493.994,164.91 495.064,164.421 496.135,163.959 497.206,163.525 498.276,163.118 499.347,162.738 500.418,162.386 501.489,162.06 502.559,161.762 503.63,161.491 504.701,161.247 505.771,161.03 506.842,160.84 507.913,160.676 508.984,160.54 510.054,160.43 511.125,160.346 512.196,160.29 513.266,160.26 514.337,160.256 515.408,160.279 516.479,160.329 517.549,160.404 518.62,160.506 519.691,160.634 520.761,160.788 521.832,160.969 522.903,161.175 523.974,161.407 525.044,161.665 526.115,161.949 527.186,162.259 528.256,162.594 529.327,162.955 530.398,163.341 531.469,163.753 532.539,164.191 533.61,164.653 534.681,165.141 535.751,165.654 536.822,166.192 537.893,166.755 538.964,167.343 540.034,167.956 541.105,168.594 542.176,169.257 543.246,169.944 544.317,170.656 545.388,171.392 546.459,172.153 547.529,172.938 548.6,173.747 549.671,174.581 550.741,175.438 551.812,176.32 552.883,177.225 553.954,178.155 555.024,179.108 556.095,180.085 557.166,181.085 558.237,182.109 559.307,183.157 560.378,184.228 561.449,185.322 562.519,186.439 563.59,187.579 564.661,188.743 565.732,189.929 566.802,191.138 567.873,192.37 568.944,193.624 570.014,194.901 571.085,196.2 572.156,197.522 573.227,198.866 574.297,200.233 575.368,201.621 576.439,203.031 577.509,204.464 578.58,205.918 579.651,207.394 580.722,208.891 581.792,210.41 582.863,211.95 583.934,213.512 585.004,215.095 586.075,216.699 587.146,218.324 588.217,219.97 589.287,221.637 590.358,223.325 591.429,225.033 592.499,226.762 593.57,228.511 594.641,230.281 595.712,232.07 596.782,233.88 597.853,235.71 598.924,237.56 599.994,239.43 601.065,241.319 602.136,243.228 603.207,245.157 604.277,247.104 605.348,249.072 606.419,251.058 607.489,253.063 608.56,255.088 609.631,257.131 610.702,259.193 611.772,261.274 612.843,263.373 613.914,265.491 614.984,267.627 616.055,269.781 617.126,271.953 618.197,274.144 619.267,276.352 620.338,278.578 621.409,280.821 622.479,283.082 623.55,285.361 624.621,287.657 625.692,289.97 626.762,292.3 627.833,294.647 628.904,297.011 629.974,299.392 631.045,301.79 632.116,304.203 633.187,306.634 634.257,309.08 635.328,311.543 636.399,314.022 637.469,316.517 638.54,319.028 639.611,321.554 640.682,324.096 641.752,326.654 642.823,329.226 643.894,331.814 644.964,334.418 646.035,337.036 647.106,339.669 648.177,342.317 649.247,344.979 650.318,347.656 651.389,350.348 652.459,353.054 653.53,355.773 654.601,358.507 655.672,361.255 656.742,364.017 657.813,366.792 658.884,369.581 659.954,372.384 661.025,375.2 662.096,378.029 663.167,380.871 664.237,383.726 665.308,386.593 666.379,389.474 667.45,392.367 668.52,395.273 669.591,398.191 670.662,401.121 671.732,404.063 672.803,407.018 673.874,409.984 674.945,412.962 676.015,415.951 677.086,418.952 678.157,421.965 679.227,424.988 680.298,428.023 681.369,431.069 682.44,434.125 683.51,437.192 684.581,440.27 685.652,443.359 686.722,446.458 687.793,449.567 688.864,452.686 689.935,455.815 691.005,458.954 692.076,462.103 693.147,465.261 694.217,468.429 695.288,471.607 696.359,474.793 697.43,477.989 698.5,481.193 699.571,484.407 700.642,487.629 701.712,490.86 702.783,494.099 703.854,497.347 704.925,500.603 705.995,503.867 707.066,507.139 708.137,510.419 709.207,513.707 710.278,517.002 711.349,520.305 712.42,523.615 713.49,526.933 714.561,530.257 715.632,533.589 716.702,536.927 717.773,540.272 718.844,543.624 719.915,546.982 720.985,550.346 722.056,553.717 723.127,557.094 724.197,560.477 725.268,563.866 726.339,567.26 727.41,570.66 728.48,574.066 729.551,577.477 730.622,580.893 731.692,584.314 732.763,587.741 733.834,591.172 734.905,594.608 735.975,598.048 737.046,601.493 738.117,604.942 739.187,608.396 740.258,611.854 741.329,615.315 742.4,618.781 743.47,622.25 744.541,625.723 745.612,629.2 746.682,632.679 747.753,636.163 748.824,639.649 749.895,643.138 750.965,646.63 752.036,650.125 753.107,653.622 754.177,657.122 755.248,660.625 756.319,664.129 757.39,667.636 758.46,671.145 759.531,674.656 760.602,678.168 761.672,681.683 762.743,685.198 763.814,688.715 764.885,692.234 765.955,695.754 767.026,699.274 768.097,702.796 769.167,706.319 770.238,709.842 771.309,713.366 772.38,716.89 773.45,720.415 774.521,723.939 775.592,727.464 776.662,730.989 777.733,734.514 778.804,738.039 779.875,741.563 780.945,745.087 782.016,748.61 783.087,752.133 784.158,755.654 785.228,759.175 786.299,762.695 787.37,766.213 788.44,769.731 789.511,773.246 790.582,776.761 791.653,780.273 792.723,783.784 793.794,787.293 794.865,790.801 795.935,794.306 797.006,797.808 798.077,801.309 799.148,804.807 800.218,808.303 801.289,811.796 802.36,815.286 803.43,818.773 804.501,822.257 805.572,825.739 806.643,829.217 807.713,832.692 808.784,836.163 809.855,839.631 810.925,843.095 811.996,846.555 813.067,850.012 814.138,853.464 815.208,856.913 816.279,860.357 817.35,863.798 818.42,867.233 819.491,870.664 820.562,874.091 821.633,877.513 822.703,880.93 823.774,884.342 824.845,887.75 825.915,891.152 826.986,894.548 828.057,897.94 829.128,901.326 830.198,904.707 831.269,908.081 832.34,911.451 833.41,914.814 834.481,918.171 835.552,921.523 836.623,924.868 837.693,928.207 838.764,931.54 839.835,934.866 840.905,938.186 841.976,941.499 843.047,944.805 844.118,948.104 845.188,951.397 846.259,954.683 847.33,957.961 848.4,961.232 849.471,964.496 850.542,967.753 851.613,971.002 852.683,974.243 853.754,977.477 854.825,980.703 855.895,983.921 856.966,987.131 858.037,990.334 859.108,993.528 860.178,996.713 861.249,999.891 862.32,1003.06 863.39,1006.22 864.461,1009.37 865.532,1012.52 866.603,1015.65 867.673,1018.78 868.744,1021.89 869.815,1025 870.885,1028.1 871.956,1031.19 873.027,1034.27 874.098,1037.34 875.168,1040.4 876.239,1043.45 877.31,1046.49 878.38,1049.53 879.451,1052.55 880.522,1055.56 881.593,1058.57 882.663,1061.56 883.734,1064.54 884.805,1067.51 885.875,1070.48 886.946,1073.43 888.017,1076.37 889.088,1079.3 890.158,1082.22 891.229,1085.13 892.3,1088.03 893.371,1090.92 894.441,1093.8 895.512,1096.66 896.583,1099.52 897.653,1102.36 898.724,1105.2 899.795,1108.02 900.866,1110.83 901.936,1113.63 903.007,1116.41 904.078,1119.19 905.148,1121.96 906.219,1124.71 907.29,1127.45 908.361,1130.18 909.431,1132.9 910.502,1135.6 911.573,1138.3 912.643,1140.98 913.714,1143.65 914.785,1146.3 915.856,1148.95 916.926,1151.58 917.997,1154.2 919.068,1156.81 920.138,1159.41 921.209,1161.99 922.28,1164.56 923.351,1167.11 924.421,1169.66 925.492,1172.19 926.563,1174.71 927.633,1177.22 928.704,1179.71 929.775,1182.19 930.846,1184.66 931.916,1187.11 932.987,1189.55 934.058,1191.98 935.128,1194.39 936.199,1196.79 937.27,1199.18 938.341,1201.55 939.411,1203.91 940.482,1206.26 941.553,1208.59 942.623,1210.91 943.694,1213.21 944.765,1215.5 945.836,1217.78 946.906,1220.04 947.977,1222.29 949.048,1224.53 950.118,1226.75 951.189,1228.96 952.26,1231.15 953.331,1233.33 954.401,1235.49 955.472,1237.64 956.543,1239.78 957.613,1241.9 958.684,1244.01 959.755,1246.1 960.826,1248.18 961.896,1250.24 962.967,1252.29 964.038,1254.33 965.108,1256.35 966.179,1258.35 967.25,1260.34 968.321,1262.32 969.391,1264.28 970.462,1266.23 971.533,1268.16 972.603,1270.07 973.674,1271.98 974.745,1273.86 975.816,1275.73 976.886,1277.59 977.957,1279.43 979.028,1281.26 980.098,1283.07 981.169,1284.86 982.24,1286.65 983.311,1288.41 984.381,1290.16 985.452,1291.9 986.523,1293.62 987.593,1295.32 988.664,1297.01 989.735,1298.68 990.806,1300.34 991.876,1301.98 992.947,1303.61 994.018,1305.22 995.088,1306.82 996.159,1308.4 997.23,1309.96 998.301,1311.51 999.371,1313.04 1000.44,1314.56 1001.51,1316.07 1002.58,1317.55 1003.65,1319.02 1004.72,1320.48 1005.8,1321.92 1006.87,1323.34 1007.94,1324.75 1009.01,1326.14 1010.08,1327.52 1011.15,1328.88 1012.22,1330.22 1013.29,1331.55 1014.36,1332.87 1015.43,1334.16 1016.5,1335.44 1017.57,1336.71 1018.64,1337.96 1019.71,1339.19 1020.79,1340.41 1021.86,1341.61 1022.93,1342.8 1024,1343.97 1025.07,1345.12 1026.14,1346.26 1027.21,1347.38 1028.28,1348.49 1029.35,1349.58 1030.42,1350.65 1031.49,1351.71 1032.56,1352.75 1033.63,1353.78 1034.7,1354.79 1035.78,1355.78 1036.85,1356.76 1037.92,1357.72 1038.99,1358.67 1040.06,1359.6 1041.13,1360.51 1042.2,1361.41 1043.27,1362.29 1044.34,1363.16 1045.41,1364.01 1046.48,1364.84 1047.55,1365.66 1048.62,1366.46 1049.69,1367.25 1050.77,1368.02 1051.84,1368.77 1052.91,1369.51 1053.98,1370.23 1055.05,1370.94 1056.12,1371.63 1057.19,1372.3 1058.26,1372.96 1059.33,1373.6 1060.4,1374.23 1061.47,1374.84 1062.54,1375.44 1063.61,1376.01 1064.69,1376.58 1065.76,1377.12 1066.83,1377.65 1067.9,1378.17 1068.97,1378.67 1070.04,1379.15 1071.11,1379.62 1072.18,1380.07 1073.25,1380.51 1074.32,1380.93 1075.39,1381.33 1076.46,1381.72 1077.53,1382.1 1078.6,1382.45 1079.68,1382.79 1080.75,1383.12 1081.82,1383.43 1082.89,1383.73 1083.96,1384.01 1085.03,1384.27 1086.1,1384.52 1087.17,1384.75 1088.24,1384.97 1089.31,1385.17 1090.38,1385.36 1091.45,1385.53 1092.52,1385.68 1093.59,1385.82 1094.67,1385.95 1095.74,1386.06 1096.81,1386.15 1097.88,1386.23 1098.95,1386.29 1100.02,1386.34 1101.09,1386.37 1102.16,1386.39 1103.23,1386.4 1104.3,1386.38 1105.37,1386.36 1106.44,1386.31 1107.51,1386.26 1108.58,1386.18 1109.66,1386.1 1110.73,1385.99 1111.8,1385.88 1112.87,1385.74 1113.94,1385.6 1115.01,1385.44 1116.08,1385.26 1117.15,1385.07 1118.22,1384.86 1119.29,1384.64 1120.36,1384.41 1121.43,1384.16 1122.5,1383.89 1123.57,1383.61 1124.65,1383.32 1125.72,1383.01 1126.79,1382.69 1127.86,1382.35 1128.93,1382 1130,1381.64 1131.07,1381.26 1132.14,1380.86 1133.21,1380.46 1134.28,1380.03 1135.35,1379.6 1136.42,1379.15 1137.49,1378.68 1138.56,1378.2 1139.64,1377.71 1140.71,1377.21 1141.78,1376.69 1142.85,1376.15 1143.92,1375.61 1144.99,1375.05 1146.06,1374.47 1147.13,1373.88 1148.2,1373.28 1149.27,1372.67 1150.34,1372.04 1151.41,1371.39 1152.48,1370.74 1153.55,1370.07 1154.63,1369.39 1155.7,1368.69 1156.77,1367.98 1157.84,1367.26 1158.91,1366.53 1159.98,1365.78 1161.05,1365.02 1162.12,1364.24 1163.19,1363.46 1164.26,1362.66 1165.33,1361.85 1166.4,1361.02 1167.47,1360.18 1168.54,1359.33 1169.62,1358.47 1170.69,1357.59 1171.76,1356.71 1172.83,1355.81 1173.9,1354.89 1174.97,1353.97 1176.04,1353.03 1177.11,1352.08 1178.18,1351.12 1179.25,1350.15 1180.32,1349.16 1181.39,1348.16 1182.46,1347.15 1183.53,1346.13 1184.61,1345.1 1185.68,1344.05 1186.75,1343 1187.82,1341.93 1188.89,1340.85 1189.96,1339.76 1191.03,1338.65 1192.1,1337.54 1193.17,1336.41 1194.24,1335.28 1195.31,1334.13 1196.38,1332.97 1197.45,1331.8 1198.52,1330.62 1199.6,1329.42 1200.67,1328.22 1201.74,1327.01 1202.81,1325.78 1203.88,1324.54 1204.95,1323.3 1206.02,1322.04 1207.09,1320.77 1208.16,1319.49 1209.23,1318.21 1210.3,1316.91 1211.37,1315.6 1212.44,1314.28 1213.51,1312.95 1214.59,1311.61 1215.66,1310.26 1216.73,1308.9 1217.8,1307.53 1218.87,1306.15 1219.94,1304.76 1221.01,1303.36 1222.08,1301.95 1223.15,1300.53 1224.22,1299.1 1225.29,1297.67 1226.36,1296.22 1227.43,1294.76 1228.5,1293.3 1229.58,1291.82 1230.65,1290.34 1231.72,1288.84 1232.79,1287.34 1233.86,1285.83 1234.93,1284.31 1236,1282.78 1237.07,1281.25 1238.14,1279.7 1239.21,1278.14 1240.28,1276.58 1241.35,1275.01 1242.42,1273.43 1243.49,1271.84 1244.57,1270.24 1245.64,1268.64 1246.71,1267.03 1247.78,1265.4 1248.85,1263.78 1249.92,1262.14 1250.99,1260.49 1252.06,1258.84 1253.13,1257.18 1254.2,1255.51 1255.27,1253.84 1256.34,1252.15 1257.41,1250.46 1258.48,1248.77 1259.56,1247.06 1260.63,1245.35 1261.7,1243.63 1262.77,1241.9 1263.84,1240.17 1264.91,1238.43 1265.98,1236.68 1267.05,1234.93 1268.12,1233.16 1269.19,1231.4 1270.26,1229.62 1271.33,1227.84 1272.4,1226.05 1273.47,1224.26 1274.55,1222.46 1275.62,1220.65 1276.69,1218.84 1277.76,1217.02 1278.83,1215.2 1279.9,1213.37 1280.97,1211.53 1282.04,1209.69 1283.11,1207.84 1284.18,1205.99 1285.25,1204.13 1286.32,1202.27 1287.39,1200.4 1288.46,1198.52 1289.54,1196.64 1290.61,1194.76 1291.68,1192.87 1292.75,1190.97 1293.82,1189.07 1294.89,1187.16 1295.96,1185.25 1297.03,1183.34 1298.1,1181.42 1299.17,1179.49 1300.24,1177.56 1301.31,1175.63 1302.38,1173.69 1303.45,1171.75 1304.53,1169.8 1305.6,1167.85 1306.67,1165.89 1307.74,1163.93 1308.81,1161.97 1309.88,1160 1310.95,1158.03 1312.02,1156.06 1313.09,1154.08 1314.16,1152.1 1315.23,1150.11 1316.3,1148.12 1317.37,1146.13 1318.44,1144.13 1319.52,1142.13 1320.59,1140.13 1321.66,1138.13 1322.73,1136.12 1323.8,1134.11 1324.87,1132.09 1325.94,1130.07 1327.01,1128.05 1328.08,1126.03 1329.15,1124.01 1330.22,1121.98 1331.29,1119.95 1332.36,1117.92 1333.43,1115.88 1334.51,1113.84 1335.58,1111.8 1336.65,1109.76 1337.72,1107.72 1338.79,1105.67 1339.86,1103.63 1340.93,1101.58 1342,1099.53 1343.07,1097.47 1344.14,1095.42 1345.21,1093.36 1346.28,1091.3 1347.35,1089.25 1348.42,1087.19 1349.5,1085.12 1350.57,1083.06 1351.64,1081 1352.71,1078.93 1353.78,1076.87 1354.85,1074.8 1355.92,1072.73 1356.99,1070.67 1358.06,1068.6 1359.13,1066.53 1360.2,1064.46 1361.27,1062.39 1362.34,1060.32 1363.41,1058.24 1364.49,1056.17 1365.56,1054.1 1366.63,1052.03 1367.7,1049.96 1368.77,1047.88 1369.84,1045.81 1370.91,1043.74 1371.98,1041.67 1373.05,1039.6 1374.12,1037.53 1375.19,1035.45 1376.26,1033.38 1377.33,1031.31 1378.4,1029.25 1379.48,1027.18 1380.55,1025.11 1381.62,1023.04 1382.69,1020.98 1383.76,1018.91 1384.83,1016.85 1385.9,1014.78 1386.97,1012.72 1388.04,1010.66 1389.11,1008.6 1390.18,1006.54 1391.25,1004.49 1392.32,1002.43 1393.39,1000.38 1394.47,998.326 1395.54,996.276 1396.61,994.227 1397.68,992.18 1398.75,990.135 1399.82,988.092 1400.89,986.051 1401.96,984.011 1403.03,981.974 1404.1,979.939 1405.17,977.907 1406.24,975.876 1407.31,973.848 1408.38,971.823 1409.46,969.8 1410.53,967.779 1411.6,965.761 1412.67,963.746 1413.74,961.733 1414.81,959.723 1415.88,957.716 1416.95,955.712 1418.02,953.711 1419.09,951.713 1420.16,949.718 1421.23,947.726 1422.3,945.738 1423.37,943.752 1424.45,941.77 1425.52,939.792 1426.59,937.816 1427.66,935.845 1428.73,933.877 1429.8,931.912 1430.87,929.951 1431.94,927.994 1433.01,926.041 1434.08,924.091 1435.15,922.146 1436.22,920.204 1437.29,918.267 1438.36,916.333 1439.44,914.404 1440.51,912.479 1441.58,910.558 1442.65,908.641 1443.72,906.729 1444.79,904.821 1445.86,902.918 1446.93,901.019 1448,899.124 1449.07,897.235 1450.14,895.35 1451.21,893.469 1452.28,891.594 1453.35,889.723 1454.43,887.857 1455.5,885.997 1456.57,884.141 1457.64,882.29 1458.71,880.444 1459.78,878.604 1460.85,876.768 1461.92,874.938 1462.99,873.113 1464.06,871.294 1465.13,869.48 1466.2,867.671 1467.27,865.868 1468.34,864.07 1469.42,862.278 1470.49,860.492 1471.56,858.711 1472.63,856.936 1473.7,855.167 1474.77,853.404 1475.84,851.646 1476.91,849.895 1477.98,848.149 1479.05,846.409 1480.12,844.676 1481.19,842.948 1482.26,841.227 1483.33,839.512 1484.41,837.803 1485.48,836.101 1486.55,834.405 1487.62,832.715 1488.69,831.031 1489.76,829.355 1490.83,827.684 1491.9,826.02 1492.97,824.363 1494.04,822.712 1495.11,821.068 1496.18,819.431 1497.25,817.8 1498.32,816.177 1499.4,814.56 1500.47,812.95 1501.54,811.347 1502.61,809.75 1503.68,808.161 1504.75,806.579 1505.82,805.004 1506.89,803.436 1507.96,801.875 1509.03,800.321 1510.1,798.775 1511.17,797.236 1512.24,795.704 1513.31,794.179 1514.39,792.662 1515.46,791.153 1516.53,789.65 1517.6,788.155 1518.67,786.668 1519.74,785.188 1520.81,783.716 1521.88,782.251 1522.95,780.794 1524.02,779.345 1525.09,777.903 1526.16,776.47 1527.23,775.043 1528.3,773.625 1529.38,772.215 1530.45,770.812 1531.52,769.418 1532.59,768.031 1533.66,766.652 1534.73,765.281 1535.8,763.918 1536.87,762.564 1537.94,761.217 1539.01,759.879 1540.08,758.548 1541.15,757.226 1542.22,755.912 1543.29,754.606 1544.37,753.309 1545.44,752.019 1546.51,750.738 1547.58,749.466 1548.65,748.201 1549.72,746.945 1550.79,745.698 1551.86,744.459 1552.93,743.228 1554,742.006 1555.07,740.792 1556.14,739.587 1557.21,738.39 1558.28,737.202 1559.36,736.023 1560.43,734.852 1561.5,733.69 1562.57,732.536 1563.64,731.392 1564.71,730.255 1565.78,729.128 1566.85,728.009 1567.92,726.899 1568.99,725.798 1570.06,724.706 1571.13,723.622 1572.2,722.548 1573.27,721.482 1574.35,720.425 1575.42,719.377 1576.49,718.337 1577.56,717.307 1578.63,716.286 1579.7,715.274 1580.77,714.27 1581.84,713.276 1582.91,712.29 1583.98,711.314 1585.05,710.347 1586.12,709.388 1587.19,708.439 1588.26,707.499 1589.34,706.568 1590.41,705.646 1591.48,704.733 1592.55,703.829 1593.62,702.935 1594.69,702.05 1595.76,701.173 1596.83,700.306 1597.9,699.448 1598.97,698.6 1600.04,697.76 1601.11,696.93 1602.18,696.109 1603.25,695.297 1604.33,694.494 1605.4,693.701 1606.47,692.917 1607.54,692.142 1608.61,691.377 1609.68,690.62 1610.75,689.873 1611.82,689.136 1612.89,688.407 1613.96,687.688 1615.03,686.979 1616.1,686.278 1617.17,685.587 1618.24,684.905 1619.32,684.233 1620.39,683.57 1621.46,682.916 1622.53,682.271 1623.6,681.636 1624.67,681.011 1625.74,680.394 1626.81,679.787 1627.88,679.19 1628.95,678.601 1630.02,678.022 1631.09,677.453 1632.16,676.892 1633.24,676.342 1634.31,675.8 1635.38,675.268 1636.45,674.745 1637.52,674.232 1638.59,673.728 1639.66,673.233 1640.73,672.747 1641.8,672.271 1642.87,671.805 1643.94,671.347 1645.01,670.899 1646.08,670.461 1647.15,670.031 1648.23,669.611 1649.3,669.201 1650.37,668.799 1651.44,668.407 1652.51,668.025 1653.58,667.651 1654.65,667.287 1655.72,666.932 1656.79,666.587 1657.86,666.251 1658.93,665.924 1660,665.606 1661.07,665.297 1662.14,664.998 1663.22,664.708 1664.29,664.428 1665.36,664.156 1666.43,663.894 1667.5,663.641 1668.57,663.397 1669.64,663.162 1670.71,662.937 1671.78,662.72 1672.85,662.513 1673.92,662.315 1674.99,662.126 1676.06,661.947 1677.13,661.776 1678.21,661.614 1679.28,661.462 1680.35,661.318 1681.42,661.184 1682.49,661.059 1683.56,660.943 1684.63,660.835 1685.7,660.737 1686.77,660.648 1687.84,660.568 1688.91,660.496 1689.98,660.434 1691.05,660.381 1692.12,660.336 1693.2,660.301 1694.27,660.274 1695.34,660.256 1696.41,660.247 1697.48,660.247 1698.55,660.255 1699.62,660.273 1700.69,660.299 1701.76,660.334 1702.83,660.378 1703.9,660.43 1704.97,660.492 1706.04,660.561 1707.11,660.64 1708.19,660.727 1709.26,660.823 1710.33,660.927 1711.4,661.04 1712.47,661.162 1713.54,661.292 1714.61,661.431 1715.68,661.578 1716.75,661.734 1717.82,661.898 1718.89,662.07 1719.96,662.251 1721.03,662.441 1722.1,662.639 1723.18,662.845 1724.25,663.059 1725.32,663.282 1726.39,663.513 1727.46,663.752 1728.53,664 1729.6,664.256 1730.67,664.519 1731.74,664.792 1732.81,665.072 1733.88,665.36 1734.95,665.657 1736.02,665.961 1737.09,666.274 1738.17,666.594 1739.24,666.923 1740.31,667.259 1741.38,667.603 1742.45,667.956 1743.52,668.316 1744.59,668.684 1745.66,669.06 1746.73,669.443 1747.8,669.835 1748.87,670.234 1749.94,670.641 1751.01,671.055 1752.08,671.477 1753.16,671.907 1754.23,672.344 1755.3,672.789 1756.37,673.242 1757.44,673.702 1758.51,674.169 1759.58,674.644 1760.65,675.127 1761.72,675.616 1762.79,676.113 1763.86,676.618 1764.93,677.129 1766,677.648 1767.07,678.174 1768.15,678.708 1769.22,679.248 1770.29,679.796 1771.36,680.351 1772.43,680.913 1773.5,681.481 1774.57,682.057 1775.64,682.64 1776.71,683.23 1777.78,683.827 1778.85,684.43 1779.92,685.041 1780.99,685.658 1782.06,686.282 1783.14,686.912 1784.21,687.55 1785.28,688.194 1786.35,688.845 1787.42,689.502 1788.49,690.166 1789.56,690.836 1790.63,691.513 1791.7,692.197 1792.77,692.887 1793.84,693.583 1794.91,694.285 1795.98,694.994 1797.05,695.71 1798.13,696.431 1799.2,697.159 1800.27,697.892 1801.34,698.632 1802.41,699.378 1803.48,700.131 1804.55,700.889 1805.62,701.653 1806.69,702.423 1807.76,703.199 1808.83,703.981 1809.9,704.769 1810.97,705.562 1812.04,706.362 1813.12,707.167 1814.19,707.978 1815.26,708.794 1816.33,709.616 1817.4,710.444 1818.47,711.277 1819.54,712.116 1820.61,712.96 1821.68,713.809 1822.75,714.664 1823.82,715.525 1824.89,716.39 1825.96,717.261 1827.03,718.137 1828.11,719.019 1829.18,719.905 1830.25,720.797 1831.32,721.694 1832.39,722.595 1833.46,723.502 1834.53,724.414 1835.6,725.33 1836.67,726.252 1837.74,727.178 1838.81,728.109 1839.88,729.045 1840.95,729.986 1842.02,730.931 1843.1,731.881 1844.17,732.835 1845.24,733.794 1846.31,734.758 1847.38,735.726 1848.45,736.698 1849.52,737.675 1850.59,738.656 1851.66,739.642 1852.73,740.632 1853.8,741.626 1854.87,742.624 1855.94,743.626 1857.01,744.633 1858.09,745.643 1859.16,746.658 1860.23,747.677 1861.3,748.699 1862.37,749.725 1863.44,750.756 1864.51,751.79 1865.58,752.827 1866.65,753.869 1867.72,754.914 1868.79,755.963 1869.86,757.016 1870.93,758.072 1872,759.131 1873.08,760.194 1874.15,761.261 1875.22,762.331 1876.29,763.404 1877.36,764.481 1878.43,765.561 1879.5,766.644 1880.57,767.73 1881.64,768.819 1882.71,769.912 1883.78,771.007 1884.85,772.106 1885.92,773.208 1886.99,774.312 1888.07,775.419 1889.14,776.53 1890.21,777.643 1891.28,778.759 1892.35,779.877 1893.42,780.998 1894.49,782.122 1895.56,783.249 1896.63,784.378 1897.7,785.509 1898.77,786.643 1899.84,787.78 1900.91,788.918 1901.98,790.06 1903.06,791.203 1904.13,792.349 1905.2,793.497 1906.27,794.647 1907.34,795.799 1908.41,796.953 1909.48,798.11 1910.55,799.268 1911.62,800.428 1912.69,801.59 1913.76,802.755 1914.83,803.921 1915.9,805.088 1916.97,806.258 1918.05,807.429 1919.12,808.602 1920.19,809.776 1921.26,810.952 1922.33,812.13 1923.4,813.309 1924.47,814.49 1925.54,815.672 1926.61,816.855 1927.68,818.04 1928.75,819.226 1929.82,820.413 1930.89,821.601 1931.96,822.791 1933.04,823.982 1934.11,825.174 1935.18,826.366 1936.25,827.56 1937.32,828.755 1938.39,829.951 1939.46,831.147 1940.53,832.345 1941.6,833.543 1942.67,834.742 1943.74,835.942 1944.81,837.142 1945.88,838.343 1946.95,839.544 1948.03,840.747 1949.1,841.949 1950.17,843.152 1951.24,844.356 1952.31,845.56 1953.38,846.764 1954.45,847.968 1955.52,849.173 1956.59,850.378 1957.66,851.583 1958.73,852.789 1959.8,853.994 1960.87,855.2 1961.94,856.405 1963.02,857.611 1964.09,858.816 1965.16,860.021 1966.23,861.227 1967.3,862.432 1968.37,863.636 1969.44,864.841 1970.51,866.045 1971.58,867.249 1972.65,868.453 1973.72,869.656 1974.79,870.858 1975.86,872.06 1976.93,873.262 1978.01,874.463 1979.08,875.664 1980.15,876.863 1981.22,878.063 1982.29,879.261 1983.36,880.459 1984.43,881.655 1985.5,882.851 1986.57,884.047 1987.64,885.241 1988.71,886.434 1989.78,887.626 1990.85,888.818 1991.92,890.008 1993,891.197 1994.07,892.385 1995.14,893.572 1996.21,894.757 1997.28,895.941 1998.35,897.124 1999.42,898.306 2000.49,899.486 2001.56,900.665 2002.63,901.843 2003.7,903.019 2004.77,904.193 2005.84,905.366 2006.91,906.538 2007.99,907.708 2009.06,908.876 2010.13,910.042 2011.2,911.207 2012.27,912.37 2013.34,913.531 2014.41,914.691 2015.48,915.848 2016.55,917.004 2017.62,918.158 2018.69,919.309 2019.76,920.459 2020.83,921.607 2021.9,922.753 2022.98,923.896 2024.05,925.038 2025.12,926.177 2026.19,927.314 2027.26,928.449 2028.33,929.581 2029.4,930.712 2030.47,931.84 2031.54,932.965 2032.61,934.089 2033.68,935.209 2034.75,936.328 2035.82,937.443 2036.89,938.557 2037.97,939.667 2039.04,940.776 2040.11,941.881 2041.18,942.984 2042.25,944.084 2043.32,945.182 2044.39,946.276 2045.46,947.368 2046.53,948.457 2047.6,949.544 2048.67,950.627 2049.74,951.708 2050.81,952.785 2051.88,953.86 2052.96,954.932 2054.03,956 2055.1,957.066 2056.17,958.128 2057.24,959.188 2058.31,960.244 2059.38,961.297 2060.45,962.347 2061.52,963.394 2062.59,964.437 2063.66,965.478 2064.73,966.514 2065.8,967.548 2066.87,968.578 2067.95,969.605 2069.02,970.628 2070.09,971.648 2071.16,972.665 2072.23,973.678 2073.3,974.687 2074.37,975.693 2075.44,976.695 2076.51,977.694 2077.58,978.689 2078.65,979.681 2079.72,980.668 2080.79,981.652 2081.86,982.633 2082.94,983.609 2084.01,984.582 2085.08,985.551 2086.15,986.516 2087.22,987.477 2088.29,988.435 2089.36,989.388 2090.43,990.338 2091.5,991.284 2092.57,992.225 2093.64,993.163 2094.71,994.097 2095.78,995.026 2096.85,995.952 2097.93,996.873 2099,997.79 2100.07,998.704 2101.14,999.613 2102.21,1000.52 2103.28,1001.42 2104.35,1002.31 2105.42,1003.21 2106.49,1004.09 2107.56,1004.98 2108.63,1005.86 2109.7,1006.73 2110.77,1007.6 2111.84,1008.47 2112.92,1009.33 2113.99,1010.19 2115.06,1011.04 2116.13,1011.89 2117.2,1012.73 2118.27,1013.57 2119.34,1014.41 2120.41,1015.24 2121.48,1016.07 2122.55,1016.89 2123.62,1017.7 2124.69,1018.52 2125.76,1019.32 2126.83,1020.13 2127.91,1020.93 2128.98,1021.72 2130.05,1022.51 2131.12,1023.29 2132.19,1024.07 2133.26,1024.85 2134.33,1025.62 2135.4,1026.38 2136.47,1027.14 2137.54,1027.9 2138.61,1028.65 2139.68,1029.4 2140.75,1030.14 2141.82,1030.87 2142.9,1031.61 2143.97,1032.33 2145.04,1033.05 2146.11,1033.77 2147.18,1034.48 2148.25,1035.19 2149.32,1035.89 2150.39,1036.59 2151.46,1037.28 2152.53,1037.97 2153.6,1038.65 2154.67,1039.33 2155.74,1040 2156.81,1040.67 2157.89,1041.33 2158.96,1041.99 2160.03,1042.64 2161.1,1043.28 2162.17,1043.92 2163.24,1044.56 2164.31,1045.19 2165.38,1045.82 2166.45,1046.44 2167.52,1047.05 2168.59,1047.67 2169.66,1048.27 2170.73,1048.87 2171.8,1049.47 2172.88,1050.06 2173.95,1050.64 2175.02,1051.22 2176.09,1051.79 2177.16,1052.36 2178.23,1052.93 2179.3,1053.48 2180.37,1054.04 2181.44,1054.58 2182.51,1055.13 2183.58,1055.66 2184.65,1056.2 2185.72,1056.72 2186.79,1057.24 2187.87,1057.76 2188.94,1058.27 2190.01,1058.77 2191.08,1059.27 2192.15,1059.77 2193.22,1060.26 2194.29,1060.74 2195.36,1061.22 2196.43,1061.69 2197.5,1062.16 2198.57,1062.62 2199.64,1063.08 2200.71,1063.53 2201.79,1063.98 2202.86,1064.42 2203.93,1064.85 2205,1065.28 2206.07,1065.71 2207.14,1066.12 2208.21,1066.54 2209.28,1066.95 2210.35,1067.35 2211.42,1067.75 2212.49,1068.14 2213.56,1068.52 2214.63,1068.9 2215.7,1069.28 2216.78,1069.65 2217.85,1070.01 2218.92,1070.37 2219.99,1070.73 2221.06,1071.08 2222.13,1071.42 2223.2,1071.76 2224.27,1072.09 2225.34,1072.41 2226.41,1072.73 2227.48,1073.05 2228.55,1073.36 2229.62,1073.66 2230.69,1073.96 2231.77,1074.26 2232.84,1074.55 2233.91,1074.83 2234.98,1075.11 2236.05,1075.38 2237.12,1075.64 2238.19,1075.9 2239.26,1076.16 2240.33,1076.41 2241.4,1076.65 2242.47,1076.89 2243.54,1077.13 2244.61,1077.36 2245.68,1077.58 2246.76,1077.8 2247.83,1078.01 2248.9,1078.21 2249.97,1078.42 2251.04,1078.61 2252.11,1078.8 2253.18,1078.99 2254.25,1079.17 2255.32,1079.34 2256.39,1079.51 2257.46,1079.67 2258.53,1079.83 2259.6,1079.98 2260.67,1080.13 2261.75,1080.27 2262.82,1080.41 2263.89,1080.54 2264.96,1080.67 2266.03,1080.79 2267.1,1080.9 2268.17,1081.01 2269.24,1081.12 2270.31,1081.22 2271.38,1081.31 2272.45,1081.4 2273.52,1081.48 2274.59,1081.56 2275.66,1081.63 2276.74,1081.7 2277.81,1081.76 2278.88,1081.82 2279.95,1081.87 2281.02,1081.92 2282.09,1081.96 2283.16,1082 2284.23,1082.03 2285.3,1082.05 2286.37,1082.07 2287.44,1082.09 2288.51,1082.1 2289.58,1082.1 2290.65,1082.1 2291.73,1082.1 2292.8,1082.09 2293.87,1082.07 2294.94,1082.05 2296.01,1082.03 2297.08,1082 2298.15,1081.96 2299.22,1081.92 2300.29,1081.87 2301.36,1081.82 2302.43,1081.77 2303.5,1081.7 2304.57,1081.64 2305.64,1081.57 2306.72,1081.49 2307.79,1081.41 2308.86,1081.32 2309.93,1081.23 2311,1081.14 2312.07,1081.04 2313.14,1080.93 2314.21,1080.82 2315.28,1080.7 2316.35,1080.58 2317.42,1080.46 2318.49,1080.33 2319.56,1080.19 2320.63,1080.05 2321.71,1079.91 2322.78,1079.76 2323.85,1079.61 2324.92,1079.45 2325.99,1079.28 2327.06,1079.11 2328.13,1078.94 2329.2,1078.76 2330.27,1078.58 2331.34,1078.39 2332.41,1078.2 2333.48,1078.01 2334.55,1077.81 2335.62,1077.6 2336.7,1077.39 2337.77,1077.17 2338.84,1076.96 2339.91,1076.73 2340.98,1076.5 2342.05,1076.27 2343.12,1076.03 2344.19,1075.79 2345.26,1075.54 2346.33,1075.29 2347.4,1075.04 2348.47,1074.78 2349.54,1074.51 2350.61,1074.25 2351.69,1073.97 2352.76,1073.7 "/>
<path clip-path="url(#clip040)" d="M2045.52 270.476 L2281.37 270.476 L2281.37 166.796 L2045.52 166.796  Z" fill="#ffffff" fill-rule="evenodd" fill-opacity="1"/>
<polyline clip-path="url(#clip040)" style="stroke:#000000; stroke-linecap:round; stroke-linejoin:round; stroke-width:4; stroke-opacity:1; fill:none" points="2045.52,270.476 2281.37,270.476 2281.37,166.796 2045.52,166.796 2045.52,270.476 "/>
<polyline clip-path="url(#clip040)" style="stroke:#009af9; stroke-linecap:round; stroke-linejoin:round; stroke-width:12; stroke-opacity:1; fill:none" points="2069.31,218.636 2212.07,218.636 "/>
<path clip-path="url(#clip040)" d="M2235.87 225.684 L2235.87 209.99 L2240.13 209.99 L2240.13 225.522 Q2240.13 229.203 2241.56 231.055 Q2243 232.883 2245.87 232.883 Q2249.32 232.883 2251.31 230.684 Q2253.32 228.485 2253.32 224.689 L2253.32 209.99 L2257.58 209.99 L2257.58 235.916 L2253.32 235.916 L2253.32 231.934 Q2251.77 234.295 2249.71 235.453 Q2247.67 236.587 2244.97 236.587 Q2240.5 236.587 2238.18 233.809 Q2235.87 231.031 2235.87 225.684 M2246.59 209.365 L2246.59 209.365 Z" fill="#000000" fill-rule="nonzero" fill-opacity="1" /></svg>
